<svg width="328" height="408" viewBox="0 0 328 408" fill="none" xmlns="http://www.w3.org/2000/svg">
<g clip-path="url(#clip0_1567_251)">
<rect width="328" height="408" fill="#0B485B"/>
<path opacity="0.1" d="M357.714 -38.602L357.791 -38.3893L461.973 253.835L461.072 254.385L356.961 -37.617L133.702 -173.785L134.123 -174.964L357.714 -38.602Z" fill="url(#paint0_linear_1567_251)"/>
<path opacity="0.2" d="M351.579 -30.579L351.657 -30.3663L455.842 261.853L454.937 262.408L350.826 -29.5941L127.568 -165.762L127.992 -166.945L351.579 -30.579Z" fill="url(#paint1_linear_1567_251)"/>
<path opacity="0.3" d="M345.445 -22.5563L345.523 -22.3436L449.708 269.875L448.803 270.43L344.696 -21.576L121.434 -157.739L121.858 -158.923L345.445 -22.5563Z" fill="url(#paint2_linear_1567_251)"/>
<path opacity="0.4" d="M339.315 -14.5379L339.389 -14.3206L443.574 277.899L442.669 278.454L338.562 -13.553L115.3 -149.716L115.724 -150.9L339.315 -14.5379Z" fill="url(#paint3_linear_1567_251)"/>
<path opacity="0.5" d="M333.181 -6.51517L333.255 -6.29783L437.44 285.921L436.535 286.476L332.428 -5.53022L109.165 -141.693L109.59 -142.877L333.181 -6.51517Z" fill="url(#paint4_linear_1567_251)"/>
<path opacity="0.6" d="M327.047 1.50776L327.121 1.72509L431.306 293.944L430.401 294.499L326.293 2.49271L103.031 -133.67L103.455 -134.854L327.047 1.50776Z" fill="url(#paint5_linear_1567_251)"/>
<path opacity="0.7" d="M320.912 9.53074L320.987 9.74807L425.172 301.967L424.267 302.522L320.159 10.5157L96.897 -125.647L97.3213 -126.831L320.912 9.53074Z" fill="url(#paint6_linear_1567_251)"/>
<path opacity="0.8" d="M314.778 17.5538L314.856 17.7665L419.041 309.986L418.136 310.541L314.025 18.5387L90.7664 -117.629L91.1907 -118.813L314.778 17.5538Z" fill="url(#paint7_linear_1567_251)"/>
<path opacity="0.9" d="M308.644 25.5767L308.722 25.7894L412.907 318.009L412.002 318.563L307.891 26.5617L84.6324 -109.606L85.0566 -110.79L308.644 25.5767Z" fill="url(#paint8_linear_1567_251)"/>
<path d="M302.51 33.5992L302.588 33.8119L406.773 326.031L405.868 326.586L301.76 34.5795L78.4981 -101.583L78.9223 -102.767L302.51 33.5992Z" fill="url(#paint9_linear_1567_251)"/>
<path opacity="0.1" d="M-27.8145 443.502L-27.8923 443.29L-132.074 151.066L-131.172 150.516L-27.0615 442.518L196.197 578.685L195.776 579.864L-27.8145 443.502Z" fill="url(#paint10_linear_1567_251)"/>
<path opacity="0.2" d="M-21.6805 435.479L-21.7583 435.267L-125.943 143.048L-125.038 142.493L-20.9274 434.494L202.331 570.662L201.907 571.846L-21.6805 435.479Z" fill="url(#paint11_linear_1567_251)"/>
<path opacity="0.3" d="M-15.5462 427.457L-15.624 427.244L-119.809 135.025L-118.904 134.47L-14.7967 426.476L208.465 562.639L208.041 563.823L-15.5462 427.457Z" fill="url(#paint12_linear_1567_251)"/>
<path opacity="0.4" d="M-9.41571 419.438L-9.48995 419.221L-113.675 127.002L-112.77 126.447L-8.66264 418.454L214.6 554.616L214.175 555.8L-9.41571 419.438Z" fill="url(#paint13_linear_1567_251)"/>
<path opacity="0.5" d="M-3.28145 411.415L-3.35569 411.198L-107.541 118.979L-106.636 118.424L-2.52838 410.43L220.734 546.593L220.309 547.777L-3.28145 411.415Z" fill="url(#paint14_linear_1567_251)"/>
<path opacity="0.6" d="M2.85285 403.393L2.77861 403.175L-101.407 110.956L-100.502 110.401L3.60592 402.408L226.868 538.571L226.444 539.754L2.85285 403.393Z" fill="url(#paint15_linear_1567_251)"/>
<path opacity="0.7" d="M8.98688 395.37L8.91262 395.152L-95.2726 102.933L-94.3675 102.378L9.73994 394.385L233.002 530.548L232.578 531.731L8.98688 395.37Z" fill="url(#paint16_linear_1567_251)"/>
<path opacity="0.8" d="M15.121 387.347L15.0432 387.134L-89.142 94.9152L-88.2369 94.3603L15.8741 386.362L239.133 522.53L238.708 523.713L15.121 387.347Z" fill="url(#paint17_linear_1567_251)"/>
<path opacity="0.9" d="M21.2551 379.324L21.1773 379.111L-83.0079 86.8918L-82.1028 86.3369L22.0081 378.339L245.267 514.506L244.842 515.69L21.2551 379.324Z" fill="url(#paint18_linear_1567_251)"/>
<path d="M27.3893 371.301L27.3116 371.088L-76.8737 78.8693L-75.9686 78.3144L28.1389 370.321L251.401 506.484L250.977 507.668L27.3893 371.301Z" fill="url(#paint19_linear_1567_251)"/>
</g>
<defs>
<linearGradient id="paint0_linear_1567_251" x1="491.475" y1="215.249" x2="77.673" y2="-101.135" gradientUnits="userSpaceOnUse">
<stop stop-color="#78EDF2"/>
<stop offset="0.5" stop-color="#19C1CE" stop-opacity="0.4"/>
<stop offset="1" stop-color="#78EDF2" stop-opacity="0"/>
</linearGradient>
<linearGradient id="paint1_linear_1567_251" x1="485.341" y1="223.272" x2="71.5388" y2="-93.1123" gradientUnits="userSpaceOnUse">
<stop stop-color="#78EDF2"/>
<stop offset="0.5" stop-color="#19C1CE" stop-opacity="0.4"/>
<stop offset="1" stop-color="#78EDF2" stop-opacity="0"/>
</linearGradient>
<linearGradient id="paint2_linear_1567_251" x1="479.206" y1="231.295" x2="65.405" y2="-85.0899" gradientUnits="userSpaceOnUse">
<stop stop-color="#78EDF2"/>
<stop offset="0.5" stop-color="#19C1CE" stop-opacity="0.4"/>
<stop offset="1" stop-color="#78EDF2" stop-opacity="0"/>
</linearGradient>
<linearGradient id="paint3_linear_1567_251" x1="473.074" y1="239.316" x2="59.2723" y2="-77.0688" gradientUnits="userSpaceOnUse">
<stop stop-color="#78EDF2"/>
<stop offset="0.5" stop-color="#19C1CE" stop-opacity="0.4"/>
<stop offset="1" stop-color="#78EDF2" stop-opacity="0"/>
</linearGradient>
<linearGradient id="paint4_linear_1567_251" x1="466.94" y1="247.338" x2="53.1383" y2="-69.0463" gradientUnits="userSpaceOnUse">
<stop stop-color="#78EDF2"/>
<stop offset="0.5" stop-color="#19C1CE" stop-opacity="0.4"/>
<stop offset="1" stop-color="#78EDF2" stop-opacity="0"/>
</linearGradient>
<linearGradient id="paint5_linear_1567_251" x1="460.806" y1="255.361" x2="47.0042" y2="-61.0235" gradientUnits="userSpaceOnUse">
<stop stop-color="#78EDF2"/>
<stop offset="0.5" stop-color="#19C1CE" stop-opacity="0.4"/>
<stop offset="1" stop-color="#78EDF2" stop-opacity="0"/>
</linearGradient>
<linearGradient id="paint6_linear_1567_251" x1="454.672" y1="263.384" x2="40.87" y2="-53.0004" gradientUnits="userSpaceOnUse">
<stop stop-color="#78EDF2"/>
<stop offset="0.5" stop-color="#19C1CE" stop-opacity="0.4"/>
<stop offset="1" stop-color="#78EDF2" stop-opacity="0"/>
</linearGradient>
<linearGradient id="paint7_linear_1567_251" x1="448.539" y1="271.405" x2="34.7374" y2="-44.9796" gradientUnits="userSpaceOnUse">
<stop stop-color="#78EDF2"/>
<stop offset="0.5" stop-color="#19C1CE" stop-opacity="0.4"/>
<stop offset="1" stop-color="#78EDF2" stop-opacity="0"/>
</linearGradient>
<linearGradient id="paint8_linear_1567_251" x1="442.405" y1="279.428" x2="28.6034" y2="-36.9566" gradientUnits="userSpaceOnUse">
<stop stop-color="#78EDF2"/>
<stop offset="0.5" stop-color="#19C1CE" stop-opacity="0.4"/>
<stop offset="1" stop-color="#78EDF2" stop-opacity="0"/>
</linearGradient>
<linearGradient id="paint9_linear_1567_251" x1="436.271" y1="287.45" x2="22.4691" y2="-28.9342" gradientUnits="userSpaceOnUse">
<stop stop-color="#78EDF2"/>
<stop offset="0.5" stop-color="#19C1CE" stop-opacity="0.4"/>
<stop offset="1" stop-color="#78EDF2" stop-opacity="0"/>
</linearGradient>
<linearGradient id="paint10_linear_1567_251" x1="-161.576" y1="189.652" x2="252.226" y2="506.036" gradientUnits="userSpaceOnUse">
<stop stop-color="#78EDF2"/>
<stop offset="0.5" stop-color="#19C1CE" stop-opacity="0.4"/>
<stop offset="1" stop-color="#78EDF2" stop-opacity="0"/>
</linearGradient>
<linearGradient id="paint11_linear_1567_251" x1="-155.442" y1="181.628" x2="258.36" y2="498.013" gradientUnits="userSpaceOnUse">
<stop stop-color="#78EDF2"/>
<stop offset="0.5" stop-color="#19C1CE" stop-opacity="0.4"/>
<stop offset="1" stop-color="#78EDF2" stop-opacity="0"/>
</linearGradient>
<linearGradient id="paint12_linear_1567_251" x1="-149.307" y1="173.606" x2="264.494" y2="489.99" gradientUnits="userSpaceOnUse">
<stop stop-color="#78EDF2"/>
<stop offset="0.5" stop-color="#19C1CE" stop-opacity="0.4"/>
<stop offset="1" stop-color="#78EDF2" stop-opacity="0"/>
</linearGradient>
<linearGradient id="paint13_linear_1567_251" x1="-143.175" y1="165.585" x2="270.627" y2="481.97" gradientUnits="userSpaceOnUse">
<stop stop-color="#78EDF2"/>
<stop offset="0.5" stop-color="#19C1CE" stop-opacity="0.4"/>
<stop offset="1" stop-color="#78EDF2" stop-opacity="0"/>
</linearGradient>
<linearGradient id="paint14_linear_1567_251" x1="-137.041" y1="157.562" x2="276.761" y2="473.946" gradientUnits="userSpaceOnUse">
<stop stop-color="#78EDF2"/>
<stop offset="0.5" stop-color="#19C1CE" stop-opacity="0.4"/>
<stop offset="1" stop-color="#78EDF2" stop-opacity="0"/>
</linearGradient>
<linearGradient id="paint15_linear_1567_251" x1="-130.906" y1="149.539" x2="282.895" y2="465.924" gradientUnits="userSpaceOnUse">
<stop stop-color="#78EDF2"/>
<stop offset="0.5" stop-color="#19C1CE" stop-opacity="0.4"/>
<stop offset="1" stop-color="#78EDF2" stop-opacity="0"/>
</linearGradient>
<linearGradient id="paint16_linear_1567_251" x1="-124.772" y1="141.516" x2="289.029" y2="457.901" gradientUnits="userSpaceOnUse">
<stop stop-color="#78EDF2"/>
<stop offset="0.5" stop-color="#19C1CE" stop-opacity="0.4"/>
<stop offset="1" stop-color="#78EDF2" stop-opacity="0"/>
</linearGradient>
<linearGradient id="paint17_linear_1567_251" x1="-118.64" y1="133.496" x2="295.162" y2="449.88" gradientUnits="userSpaceOnUse">
<stop stop-color="#78EDF2"/>
<stop offset="0.5" stop-color="#19C1CE" stop-opacity="0.4"/>
<stop offset="1" stop-color="#78EDF2" stop-opacity="0"/>
</linearGradient>
<linearGradient id="paint18_linear_1567_251" x1="-112.506" y1="125.473" x2="301.296" y2="441.857" gradientUnits="userSpaceOnUse">
<stop stop-color="#78EDF2"/>
<stop offset="0.5" stop-color="#19C1CE" stop-opacity="0.4"/>
<stop offset="1" stop-color="#78EDF2" stop-opacity="0"/>
</linearGradient>
<linearGradient id="paint19_linear_1567_251" x1="-106.372" y1="117.45" x2="307.43" y2="433.834" gradientUnits="userSpaceOnUse">
<stop stop-color="#78EDF2"/>
<stop offset="0.5" stop-color="#19C1CE" stop-opacity="0.4"/>
<stop offset="1" stop-color="#78EDF2" stop-opacity="0"/>
</linearGradient>
<clipPath id="clip0_1567_251">
<rect width="328" height="408" fill="white"/>
</clipPath>
</defs>
</svg>
