<svg width="174" height="32" viewBox="0 0 174 32" fill="none" xmlns="http://www.w3.org/2000/svg">
<path d="M160.48 8.50049H164.328L171.151 19.7403H171.4L171.151 17.7482V8.50049H174V23.4939H170.152L163.329 12.2541H163.08L163.329 14.2462V23.4939H160.48V8.50049Z" fill="black"/>
<path d="M149.455 8C154.281 8 157.754 11.502 157.754 15.9895C157.754 20.4771 154.281 23.979 149.455 23.979C144.629 23.979 141.155 20.4771 141.155 15.9895C141.155 11.502 144.608 8 149.455 8ZM149.455 21.232C152.554 21.232 154.78 18.9882 154.78 15.9895C154.78 12.9908 152.554 10.7471 149.455 10.7471C146.356 10.7471 144.13 12.9908 144.13 15.9895C144.13 18.9882 146.356 21.232 149.455 21.232Z" fill="black"/>
<path d="M135.56 8.50049H138.41V23.4939H135.56V8.50049Z" fill="black"/>
<path d="M120.063 8.50049H133.584V11.2475H128.259V23.4939H125.409V11.2475H120.063V8.50049Z" fill="black"/>
<path d="M109.517 8.50049H116.257L120.438 23.4939H117.588L116.59 19.8661H109.143L108.144 23.4939H105.295L109.517 8.50049ZM115.862 17.1401L114.26 11.2685H111.535L109.933 17.1401H115.862Z" fill="black"/>
<path d="M92.1899 8.50049H105.711V11.2475H100.386V23.4939H97.5358V11.2475H92.1899V8.50049Z" fill="black"/>
<path d="M81.1444 19.0092C81.2692 19.4495 81.498 19.8689 81.81 20.2045C82.3717 20.8126 83.3077 21.3788 84.9926 21.3788C87.4679 21.3788 88.4663 20.3722 88.4663 19.3866C88.4663 17.7929 86.0534 17.4155 83.6405 16.8912C81.2068 16.367 78.8147 15.3394 78.8147 12.5085C78.8147 10.1389 80.9156 8 84.8886 8C87.6759 8 89.2776 9.13237 90.1928 10.2438C90.7336 10.9148 91.1081 11.6697 91.3369 12.4875H88.3623C88.2375 12.173 88.0503 11.8375 87.7383 11.5649C87.2391 11.0826 86.3654 10.6212 84.8886 10.6212C82.6421 10.6212 81.7892 11.3761 81.7892 12.3617C81.7892 13.4941 83.1621 14.0183 84.847 14.3539C87.6967 14.9201 91.4617 15.633 91.4617 19.2189C91.4617 21.7143 89.2568 23.9581 85.0134 23.9581C81.8724 23.9581 80.1044 22.7418 79.1683 21.4626C78.6275 20.7287 78.2531 19.8899 78.0867 18.9672H81.1444V19.0092Z" fill="black"/>
<path d="M72.6786 15.9895C72.6786 11.3552 68.9553 8 63.7966 8H57.1611V24H63.7966C68.9345 23.979 72.6786 20.6239 72.6786 15.9895ZM61.8829 19.9318V12.0472H63.6718C66.1471 12.0472 67.7072 13.557 67.7072 15.9895C67.7072 18.422 66.1679 19.9318 63.6718 19.9318H61.8829V19.9318Z" fill="black"/>
<path d="M51.94 18.3381C52.4393 18.1075 52.8969 17.751 53.3129 17.3106C54.2489 16.346 54.7066 15.1507 54.7066 13.7457C54.7066 10.3486 52.0648 8 48.2999 8H39.7715V24H44.4933V19.3866H47.3846L49.9639 24H54.7274L51.6488 18.4849L51.94 18.3381ZM47.8423 15.5491H44.5141V11.9214H47.8423C49.0071 11.9214 49.8807 12.6972 49.8807 13.7248C49.8807 14.7733 49.0071 15.5491 47.8423 15.5491Z" fill="black"/>
<path d="M15.9023 23.2157L31.8171 29.1384V23.8279L15.9023 17.9053L0 23.8279V29.1384L15.9023 23.2157Z" fill="black"/>
<path d="M15.9023 23.2158L0 29.1385L5.90267 31.9999L15.9023 28.2763L25.9145 31.9999L31.8171 29.1385L15.9023 23.2158Z" fill="white"/>
<path d="M15.9023 8.78406L0 2.86133V8.17175L15.9023 14.0945L31.8171 8.17175V2.86133L15.9023 8.78406Z" fill="black"/>
<path d="M15.9023 8.7841L31.8171 2.86137L25.9145 0L15.9023 3.72358L5.90267 0L0 2.86137L15.9023 8.7841Z" fill="white"/>
</svg>
