<svg width="32" height="32" viewBox="0 0 32 32" fill="none" xmlns="http://www.w3.org/2000/svg">
<path d="M19.0327 16L23.5814 11.4514C24.1395 10.8932 24.1395 9.98818 23.5814 9.42955L22.5705 8.41864C22.0123 7.86045 21.1073 7.86045 20.5486 8.41864L16 12.9673L11.4514 8.41864C10.8932 7.86045 9.98818 7.86045 9.42955 8.41864L8.41864 9.42955C7.86045 9.98773 7.86045 10.8927 8.41864 11.4514L12.9673 16L8.41864 20.5486C7.86045 21.1068 7.86045 22.0118 8.41864 22.5705L9.42955 23.5814C9.98773 24.1395 10.8932 24.1395 11.4514 23.5814L16 19.0327L20.5486 23.5814C21.1068 24.1395 22.0123 24.1395 22.5705 23.5814L23.5814 22.5705C24.1395 22.0123 24.1395 21.1073 23.5814 20.5486L19.0327 16Z" fill="#19C1CE"/>
</svg>
